# xmcd
#
# Track frame offsets: 
#        150
#        18266
#        32012
#        48290
#        69033
#        89242
#        116881
#        140561
#        159639
#
# Disc length: 2547 seconds
#
# Revision: 1
# Processed by: cddbd v1.5.2PL0 Copyright (c) Steve Scherf et al.
# Submitted via: ExactAudioCopy v1.1
#
DISCID=7609f109
DTITLE=Status Quo - Tokyo Quo
DYEAR=1976
DGENRE=Rock
TTITLE0=Is There A Better Way
TTITLE1=Little Lady
TTITLE2=Most Of The Time
TTITLE3=Rain
TTITLE4=Caroline
TTITLE5=Roll Over Lay Down
TTITLE6=Big Fat Mama
TTITLE7=Don't Waste My Time
TTITLE8=Bye Bye Johnny
EXTD=
EXTT0=
EXTT1=
EXTT2=
EXTT3=
EXTT4=
EXTT5=
EXTT6=
EXTT7=
EXTT8=
PLAYORDER=
